<svg xmlns="http://www.w3.org/2000/svg" xmlns:xlink="http://www.w3.org/1999/xlink" width="18" height="18" viewBox="0 0 18 18">
  <defs>
    <clipPath id="clip-path">
      <rect id="Rectangle_176" data-name="Rectangle 176" width="18" height="18" transform="translate(460 396)" fill="#878175" stroke="#707070" stroke-width="1"/>
    </clipPath>
  </defs>
  <g id="icon-acc3" transform="translate(-460 -396)" clip-path="url(#clip-path)">
    <path id="love_5_" data-name="love (5)" d="M12.8,1.125A5.212,5.212,0,0,0,9,2.773,5.2,5.2,0,0,0,0,6.328c0,5.181,8.356,10.266,8.719,10.465a.563.563,0,0,0,.579,0c.346-.2,8.7-5.285,8.7-10.465a5.209,5.209,0,0,0-5.2-5.2ZM9,15.649c-1.454-.928-7.875-5.265-7.875-9.321A4.078,4.078,0,0,1,8.539,3.985a.563.563,0,0,0,.92,0,4.078,4.078,0,0,1,7.417,2.343C16.875,10.381,10.454,14.718,9,15.649Z" transform="translate(460 396)" fill="#878175"/>
  </g>
</svg>
