<svg xmlns="http://www.w3.org/2000/svg" xmlns:xlink="http://www.w3.org/1999/xlink" width="8" height="8" viewBox="0 0 8 8">
  <defs>
    <clipPath id="clip-path">
      <rect id="Rectangle_171" data-name="Rectangle 171" width="8" height="8" transform="translate(1052 614)" fill="#d6878a" stroke="#707070" stroke-width="1"/>
    </clipPath>
  </defs>
  <g id="icon-select" transform="translate(-1052 -614)" clip-path="url(#clip-path)">
    <g id="arrows-up-and-down-filled-triangles_3_" data-name="arrows-up-and-down-filled-triangles (3)" transform="translate(1052 614)">
      <g id="Group_96" data-name="Group 96">
        <path id="Path_83" data-name="Path 83" d="M1.46,3.522H6.54a.169.169,0,0,0,.132-.274L4.132.064a.169.169,0,0,0-.264,0L1.328,3.248a.169.169,0,0,0,.132.274Z" fill="#d6878a"/>
        <path id="Path_84" data-name="Path 84" d="M6.54,4.478H1.46a.169.169,0,0,0-.132.274l2.54,3.184a.169.169,0,0,0,.264,0l2.54-3.184a.169.169,0,0,0-.132-.274Z" fill="#d6878a"/>
      </g>
    </g>
  </g>
</svg>
