<svg xmlns="http://www.w3.org/2000/svg" xmlns:xlink="http://www.w3.org/1999/xlink" width="18" height="18" viewBox="0 0 18 18">
  <defs>
    <clipPath id="clip-path">
      <rect id="Rectangle_177" data-name="Rectangle 177" width="18" height="18" transform="translate(460 448)" fill="#878175" stroke="#707070" stroke-width="1"/>
    </clipPath>
  </defs>
  <g id="icon-acc2" transform="translate(-460 -448)" clip-path="url(#clip-path)">
    <g id="share_3_" data-name="share (3)" transform="translate(460 448)">
      <g id="Group_97" data-name="Group 97">
        <path id="Path_85" data-name="Path 85" d="M14.273,11.672a3.162,3.162,0,0,0-2.545,1.286L6.762,10.419a3.164,3.164,0,0,0-.1-2.079l5.205-3.127a3.151,3.151,0,1,0-.541-.905L6.105,7.443A3.164,3.164,0,1,0,6.3,11.367L11.251,13.9a3.164,3.164,0,1,0,3.022-2.226Zm0-10.617a2.109,2.109,0,1,1-2.109,2.109A2.112,2.112,0,0,1,14.273,1.055ZM3.727,11.637A2.109,2.109,0,1,1,5.836,9.527,2.112,2.112,0,0,1,3.727,11.637Zm10.547,5.309a2.109,2.109,0,1,1,2.109-2.109A2.112,2.112,0,0,1,14.273,16.945Z" fill="#878175"/>
      </g>
    </g>
  </g>
</svg>
