<svg xmlns="http://www.w3.org/2000/svg" xmlns:xlink="http://www.w3.org/1999/xlink" width="12" height="12" viewBox="0 0 12 12">
  <defs>
    <clipPath id="clip-path">
      <rect id="Rectangle_63" data-name="Rectangle 63" width="12" height="12" transform="translate(589 2854)" fill="#fff" stroke="#707070" stroke-width="1"/>
    </clipPath>
  </defs>
  <g id="icon-share" transform="translate(-589 -2854)" clip-path="url(#clip-path)">
    <g id="share_3_" data-name="share (3)" transform="translate(589 2854)">
      <g id="Group_40" data-name="Group 40">
        <path id="Path_27" data-name="Path 27" d="M9.516,7.781a2.108,2.108,0,0,0-1.7.857L4.508,6.946A2.109,2.109,0,0,0,4.44,5.56L7.91,3.476a2.1,2.1,0,1,0-.361-.6L4.07,4.962A2.109,2.109,0,1,0,4.2,7.578L7.5,9.265A2.109,2.109,0,1,0,9.516,7.781ZM9.516.7A1.406,1.406,0,1,1,8.109,2.109,1.408,1.408,0,0,1,9.516.7ZM2.484,7.758A1.406,1.406,0,1,1,3.891,6.352,1.408,1.408,0,0,1,2.484,7.758ZM9.516,11.3a1.406,1.406,0,1,1,1.406-1.406A1.408,1.408,0,0,1,9.516,11.3Z" fill="#fff"/>
      </g>
    </g>
  </g>
</svg>
