<svg xmlns="http://www.w3.org/2000/svg" xmlns:xlink="http://www.w3.org/1999/xlink" width="12" height="12" viewBox="0 0 12 12">
  <defs>
    <clipPath id="clip-path">
      <rect id="Rectangle_62" data-name="Rectangle 62" width="12" height="12" transform="translate(529 2854)" fill="#fff" stroke="#707070" stroke-width="1"/>
    </clipPath>
  </defs>
  <g id="icon-tym" transform="translate(-529 -2854)" clip-path="url(#clip-path)">
    <path id="heart_2_" data-name="heart (2)" d="M6,10.676a.7.7,0,0,1-.464-.174c-.485-.424-.952-.822-1.365-1.174l0,0A25.378,25.378,0,0,1,1.19,6.53,4.466,4.466,0,0,1,0,3.606,3.751,3.751,0,0,1,.952,1.045,3.227,3.227,0,0,1,3.352,0,3.018,3.018,0,0,1,5.238.651a3.858,3.858,0,0,1,.762.8,3.858,3.858,0,0,1,.762-.8A3.018,3.018,0,0,1,8.648,0a3.227,3.227,0,0,1,2.4,1.045A3.751,3.751,0,0,1,12,3.606,4.466,4.466,0,0,1,10.81,6.53a25.372,25.372,0,0,1-2.979,2.8c-.413.352-.881.751-1.367,1.176A.7.7,0,0,1,6,10.676ZM3.352.7a2.532,2.532,0,0,0-1.884.818A3.051,3.051,0,0,0,.7,3.606,3.758,3.758,0,0,0,1.731,6.081a24.973,24.973,0,0,0,2.894,2.71l0,0c.414.353.883.753,1.371,1.18.491-.428.961-.828,1.376-1.182a24.977,24.977,0,0,0,2.894-2.71A3.758,3.758,0,0,0,11.3,3.606a3.051,3.051,0,0,0-.766-2.085A2.531,2.531,0,0,0,8.648.7a2.331,2.331,0,0,0-1.456.5,3.411,3.411,0,0,0-.811.939.444.444,0,0,1-.762,0,3.408,3.408,0,0,0-.811-.939A2.331,2.331,0,0,0,3.352.7Zm0,0" transform="translate(529 2854.662)" fill="#fff"/>
  </g>
</svg>
