<svg xmlns="http://www.w3.org/2000/svg" xmlns:xlink="http://www.w3.org/1999/xlink" width="18" height="18" viewBox="0 0 18 18">
  <defs>
    <clipPath id="clip-path">
      <rect id="Rectangle_175" data-name="Rectangle 175" width="18" height="18" transform="translate(460 344)" fill="#878175" stroke="#707070" stroke-width="1"/>
    </clipPath>
  </defs>
  <g id="icon-acc1" transform="translate(-460 -344)" clip-path="url(#clip-path)">
    <g id="Layer_2" data-name="Layer 2" transform="translate(459.4 343.4)">
      <path id="Path_89" data-name="Path 89" d="M16.932,17.7H2.268A1.668,1.668,0,0,1,.6,16.032V6.168A1.668,1.668,0,0,1,2.268,4.5H9A.6.6,0,0,1,9,5.7H2.268a.468.468,0,0,0-.468.468v9.864a.468.468,0,0,0,.468.468H16.932a.468.468,0,0,0,.468-.468V6.168a.468.468,0,0,0-.468-.468H16.2a.6.6,0,0,1,0-1.2h.732A1.668,1.668,0,0,1,18.6,6.168v9.864A1.668,1.668,0,0,1,16.932,17.7Z" fill="#878175"/>
      <rect id="Rectangle_179" data-name="Rectangle 179" width="1.2" height="8.4" rx="0.6" transform="translate(12.078 1.5)" fill="#878175"/>
      <rect id="Rectangle_180" data-name="Rectangle 180" width="6" height="1.2" rx="0.6" transform="translate(3.6 13.218)" fill="#878175"/>
      <rect id="Rectangle_181" data-name="Rectangle 181" width="2.4" height="1.2" rx="0.6" transform="translate(3.6 10.632)" fill="#878175"/>
    </g>
  </g>
</svg>
