<svg xmlns="http://www.w3.org/2000/svg" xmlns:xlink="http://www.w3.org/1999/xlink" width="24" height="24" viewBox="0 0 24 24">
  <defs>
    <clipPath id="clip-path">
      <rect id="Rectangle_116" data-name="Rectangle 116" width="24" height="24" transform="translate(375 156)" fill="#d01414" stroke="#707070" stroke-width="1"/>
    </clipPath>
  </defs>
  <g id="icon-dauphay" transform="translate(-375 -156)" clip-path="url(#clip-path)">
    <g id="quote_2_" data-name="quote (2)" transform="translate(374.2 155.202)">
      <path id="Path_67" data-name="Path 67" d="M5.28,15.392a13.564,13.564,0,0,1-2.472,3.9A1.18,1.18,0,0,0,2.7,20.72a1.159,1.159,0,0,0,.992.544.976.976,0,0,0,.336-.048c2.352-.688,7.848-3.128,8-10.952A5.765,5.765,0,0,0,7,4.36,5.608,5.608,0,0,0,.8,9.944a5.545,5.545,0,0,0,4.48,5.448Z" fill="#d01414"/>
      <path id="Path_68" data-name="Path 68" d="M19.768,4.36a5.607,5.607,0,0,0-6.192,5.584,5.545,5.545,0,0,0,4.48,5.448,13.565,13.565,0,0,1-2.472,3.9,1.18,1.18,0,0,0-.112,1.424,1.159,1.159,0,0,0,.992.544.976.976,0,0,0,.336-.048c2.352-.688,7.848-3.128,8-10.952v-.112A5.759,5.759,0,0,0,19.768,4.36Z" fill="#d01414"/>
    </g>
  </g>
</svg>
