<svg xmlns="http://www.w3.org/2000/svg" xmlns:xlink="http://www.w3.org/1999/xlink" width="18" height="18" viewBox="0 0 18 18">
  <defs>
    <clipPath id="clip-path">
      <rect id="Rectangle_178" data-name="Rectangle 178" width="18" height="18" transform="translate(460 500)" fill="#878175" stroke="#707070" stroke-width="1"/>
    </clipPath>
  </defs>
  <g id="icon-acc4" transform="translate(-460 -500)" clip-path="url(#clip-path)">
    <g id="chat_6_" data-name="chat (6)" transform="translate(460 500)">
      <g id="Group_99" data-name="Group 99">
        <g id="Group_98" data-name="Group 98">
          <path id="Path_86" data-name="Path 86" d="M9.041,0s-.014,0-.029,0A8.83,8.83,0,0,0,2.087,14.338L.8,17.328a.48.48,0,0,0,.251.632.49.49,0,0,0,.275.034l4.721-.83a8.509,8.509,0,0,0,2.942.511A8.838,8.838,0,0,0,9.041,0ZM8.993,16.716a7.741,7.741,0,0,1-2.725-.5.462.462,0,0,0-.256-.024l-3.974.694L3.09,14.444a.485.485,0,0,0-.077-.506A7.71,7.71,0,0,1,1.672,11.71,7.874,7.874,0,1,1,16.878,8.8v.029A7.9,7.9,0,0,1,8.993,16.716Z" fill="#878175"/>
        </g>
      </g>
      <g id="Group_101" data-name="Group 101">
        <g id="Group_100" data-name="Group 100">
          <path id="Path_87" data-name="Path 87" d="M8.617,7.075h-2.6a.482.482,0,0,0,0,.965h2.6a.482.482,0,0,0,0-.965Z" fill="#878175"/>
        </g>
      </g>
      <g id="Group_103" data-name="Group 103">
        <g id="Group_102" data-name="Group 102">
          <path id="Path_88" data-name="Path 88" d="M11.992,9.486H6.012a.482.482,0,0,0,0,.965h5.98a.482.482,0,0,0,0-.965Z" fill="#878175"/>
        </g>
      </g>
    </g>
  </g>
</svg>
